<?xml version="1.0" encoding="utf-8"?>
<!-- Generator: Adobe Illustrator 19.2.0, SVG Export Plug-In . SVG Version: 6.00 Build 0)  -->
<svg version="1.1" id="Layer_1" xmlns="http://www.w3.org/2000/svg" xmlns:xlink="http://www.w3.org/1999/xlink" x="0px" y="0px"
	 viewBox="0 0 100 100" style="enable-background:new 0 0 100 100;" xml:space="preserve">
<g id="icomoon-ignore">
</g>
<path d="M99.1,80.3C99.1,80.3,99.1,80.3,99.1,80.3L68.8,50l30.3-30.3c0,0,0,0,0,0c0.3-0.3,0.6-0.7,0.7-1.1c0.4-1.1,0.2-2.4-0.7-3.3
	L84.8,0.9c-0.9-0.9-2.2-1.1-3.3-0.7c-0.4,0.2-0.8,0.4-1.1,0.7c0,0,0,0,0,0L50,31.2L19.7,0.9c0,0,0,0,0,0c-0.3-0.3-0.7-0.6-1.1-0.7
	c-1.1-0.4-2.4-0.2-3.3,0.7L0.9,15.2c-0.9,0.9-1.1,2.2-0.7,3.3c0.2,0.4,0.4,0.8,0.7,1.1c0,0,0,0,0,0L31.2,50L0.9,80.3c0,0,0,0,0,0
	c-0.3,0.3-0.6,0.7-0.7,1.1c-0.4,1.1-0.2,2.4,0.7,3.3l14.3,14.3c0.9,0.9,2.2,1.1,3.3,0.7c0.4-0.2,0.8-0.4,1.1-0.7c0,0,0,0,0,0
	L50,68.8l30.3,30.3c0,0,0,0,0,0c0.3,0.3,0.7,0.6,1.1,0.7c1.1,0.4,2.4,0.2,3.3-0.7l14.3-14.3c0.9-0.9,1.1-2.2,0.7-3.3
	C99.7,81,99.4,80.7,99.1,80.3L99.1,80.3z"/>
</svg>
