<?xml version="1.0" encoding="UTF-8" standalone="no"?>
<svg viewBox="0 0 118 104" version="1.1" xmlns="http://www.w3.org/2000/svg" xmlns:xlink="http://www.w3.org/1999/xlink">
    <!-- Generator: Sketch 3.8.1 (29687) - http://www.bohemiancoding.com/sketch -->
    <title>SVGID_17_</title>
    <desc>Created with Sketch.</desc>
    <defs></defs>

    <g id="Page-1" stroke="none" stroke-width="1" fill="none" fill-rule="evenodd">
        <g id="Desktop-HD" transform="translate(-955.000000, -6409.000000)">
            <g id="How-To" transform="translate(192.000000, 5630.000000)">
                <g id="Group-Copy" transform="translate(686.000000, 694.000000)">
                  <path d="M128.195392,188.23998 L122.328172,188.23998 L120.494666,188.23998 C95.9256815,184.572967 77.2239172,163.304294 77.2239172,137.635206 C77.2239172,126.634168 80.8909298,116.366533 86.75815,107.932404 L78.324021,96.564665 C75.0237097,92.1642499 78.324021,85.9303285 83.8245399,85.9303285 L97.0257852,85.9303285 L114.260744,85.9303285 C118.66116,85.9303285 121.961471,89.9640423 120.861367,94.3644574 L116.094251,111.966118 L112.427238,124.800662 C110.960433,130.301181 103.993109,131.401285 100.692798,127.00087 L96.2923827,120.766948 C93.7254739,125.900766 92.2586689,131.401285 92.2586689,137.635206 C92.2586689,155.970269 105.459914,171.005021 123.061575,173.938631 L128.928795,173.938631 C132.962509,173.938631 136.26282,177.238942 136.26282,181.272656 L136.26282,181.272656 C135.529417,184.939669 132.229106,188.23998 128.195392,188.23998 L128.195392,188.23998 L128.195392,188.23998 Z M184.667386,166.237904 L193.101515,177.605643 C196.401827,182.006058 193.101515,188.23998 187.600996,188.23998 L174.399751,188.23998 L157.164792,188.23998 C152.764377,188.23998 149.464065,184.206266 150.564169,179.805851 L155.331285,162.20419 L158.998298,149.369646 C160.465103,143.869127 167.432427,142.769024 170.732738,147.169439 L175.133153,153.40336 C177.700062,148.269543 179.166867,142.769024 179.166867,136.535102 C179.166867,118.200039 165.965622,103.165288 148.363962,100.231678 L142.863443,100.231678 C138.829729,100.231678 135.529417,96.9313662 135.529417,92.8976524 L135.529417,92.8976524 C135.529417,88.8639385 138.829729,85.5636272 142.863443,85.5636272 L148.730663,85.5636272 L150.564169,85.5636272 C175.133153,89.2306398 193.834918,110.499313 193.834918,136.168401 C194.201619,147.53614 190.534606,157.803775 184.667386,166.237904 L184.667386,166.237904 L184.667386,166.237904 Z" id="path-1"></path>
                </g>
            </g>
        </g>
    </g>
</svg>
