<?xml version="1.0" encoding="UTF-8" standalone="no"?>
<svg viewBox="0 0 139 104" version="1.1" xmlns="http://www.w3.org/2000/svg" xmlns:xlink="http://www.w3.org/1999/xlink">
    <!-- Generator: Sketch 3.8.1 (29687) - http://www.bohemiancoding.com/sketch -->
    <title>Bike</title>
    <desc>Created with Sketch.</desc>
    <defs></defs>
    <g id="Page-1" stroke="none" stroke-width="1" fill="none" fill-rule="evenodd">
        <g id="Desktop-HD" transform="translate(-354.000000, -6811.000000)" fill="#FFFFFF">
            <g id="How-To" transform="translate(192.000000, 5630.000000)">
                <g id="Group-Copy-2" transform="translate(97.000000, 1096.000000)">
                    <g id="Bike" transform="translate(65.598781, 85.563627)">
                        <path d="M27.9911274,91.267869 L27.9911274,91.267869 C37.1661545,91.267869 44.5737711,83.9086681 44.5737711,74.8681738 C44.5737711,65.8276795 37.1661545,58.4684786 27.9911274,58.4684786 C18.8161003,58.4684786 11.4084836,65.8276795 11.4084836,74.8681738 C11.4084836,83.9086681 18.8161003,91.267869 27.9911274,91.267869 L27.9911274,91.267869 Z M27.9911274,102.676353 L27.9911274,102.676353 C12.5320546,102.676353 0,90.2262069 0,74.8681738 C0,59.5101407 12.5320546,47.059995 27.9911274,47.059995 C43.4502002,47.059995 55.9822548,59.5101407 55.9822548,74.8681738 C55.9822548,90.2262069 43.4502002,102.676353 27.9911274,102.676353 L27.9911274,102.676353 Z" id="Wheel"></path>
                        <path d="M109.811346,91.267869 L109.811346,91.267869 C118.986373,91.267869 126.39399,83.9086681 126.39399,74.8681738 C126.39399,65.8276795 118.986373,58.4684786 109.811346,58.4684786 C100.636319,58.4684786 93.2287021,65.8276795 93.2287021,74.8681738 C93.2287021,83.9086681 100.636319,91.267869 109.811346,91.267869 L109.811346,91.267869 Z M109.811346,102.676353 L109.811346,102.676353 C94.3522731,102.676353 81.8202185,90.2262069 81.8202185,74.8681738 C81.8202185,59.5101407 94.3522731,47.059995 109.811346,47.059995 C125.270419,47.059995 137.802473,59.5101407 137.802473,74.8681738 C137.802473,90.2262069 125.270419,102.676353 109.811346,102.676353 L109.811346,102.676353 Z" id="Wheel"></path>
                        <path d="M30.7993536,64.1727204 L73.2399315,64.1727204 L61.179728,72.4059507 L80.9003755,21.3909068 L85.8617654,21.3909068 L91.556606,29.6241371 L89.7778976,34.2254509 L47.3373197,34.2254509 L59.3975231,25.9922206 L39.6768756,77.0072645 L34.7154858,77.0072645 L29.0206452,68.7740342 L30.7993536,64.1727204 L30.7993536,64.1727204 Z M26.8280212,77.0072645 C26.2812276,77.0072645 25.9986564,76.591571 26.2021045,76.0652742 L46.9731789,22.332897 C47.1742883,21.8126502 47.776312,21.3909068 48.3273771,21.3909068 L94.7392874,21.3909068 L73.2399315,77.0072645 L26.8280212,77.0072645 Z" id="Rectangle-1"></path>
                        <path d="M95.3863503,62.9616112 C97.3757376,67.0379049 99.5045768,70.8183336 101.638258,74.2187433 C102.934701,76.2848607 103.962333,77.7888872 104.587322,78.6426316 C106.685612,81.5089229 110.725487,82.1426287 113.610636,80.0580533 C116.495784,77.9734778 117.133659,73.9600073 115.035369,71.093716 C114.583777,70.4768355 113.727391,69.2234405 112.601524,67.4291677 C110.698024,64.3955936 108.789681,61.0067263 107.011032,57.3622396 C102.017114,47.1296033 99.0455277,36.9815382 99.0455277,27.8081788 C99.0455277,24.2640174 97.7959857,21.4431307 94.2285074,21.4431307 C90.6610291,21.4431307 86.1265458,24.2640174 86.1265458,27.8081788 C86.1265458,39.2235673 89.6144502,51.1348748 95.3863503,62.9616112 Z" id="Line"></path>
                        <path d="M127.214333,19.2518161 C127.214333,8.61933167 118.538295,0 107.83586,0 L82.8241217,0 C82.2696813,0 81.8202185,0.456788219 81.8202185,1.00710515 L81.8202185,11.8274389 C81.8202185,12.3836477 82.2717687,12.8345441 82.8241217,12.8345441 L107.83586,12.8345441 C111.403339,12.8345441 114.295351,15.7076546 114.295351,19.2518161 C114.295351,22.3513085 111.558832,24.8624382 106.643784,25.7793125 L109.027936,38.3934079 C119.484135,36.442863 127.214333,29.3493527 127.214333,19.2518161 Z" id="Oval-3"></path>
                        <path d="M57.2609719,12.8345441 C57.8097777,12.8345441 58.2546727,12.3777559 58.2546727,11.8274389 L58.2546727,1.00710515 C58.2546727,0.450896333 57.8108015,0 57.2609719,0 L39.7506463,0 C39.2018406,0 38.7569456,0.456788219 38.7569456,1.00710515 L38.7569456,11.8274389 C38.7569456,12.3836477 39.2008168,12.8345441 39.7506463,12.8345441 L57.2609719,12.8345441 Z" id="Line"></path>
                    </g>
                </g>
            </g>
        </g>
    </g>
</svg>
