<?xml version="1.0" encoding="UTF-8" standalone="no"?>
<svg viewBox="0 0 104 111" version="1.1" xmlns="http://www.w3.org/2000/svg" xmlns:xlink="http://www.w3.org/1999/xlink">
    <!-- Generator: Sketch 3.8.1 (29687) - http://www.bohemiancoding.com/sketch -->
    <title>Register Icon</title>
    <desc>Created with Sketch.</desc>
    <defs></defs>
    <g id="Page-1" stroke="none" stroke-width="1" fill="none" fill-rule="evenodd">
        <g id="Desktop-HD" transform="translate(-374.000000, -5977.000000)" fill="#FFFFFF">
            <g id="How-To" transform="translate(192.000000, 5630.000000)">
                <g id="Group" transform="translate(97.000000, 265.000000)">
                    <path d="M134.633298,156.90217 L112.172846,133.555314 C110.918269,132.267377 110.918269,130.18003 112.172846,128.88526 L116.709857,124.215205 C117.964434,122.934101 119.992292,122.934101 121.246868,124.215205 L136.901804,140.562104 L171.808555,104.175309 C173.063131,102.887371 175.090989,102.887371 176.345566,104.175309 L180.882577,108.848779 C182.137154,110.136717 182.137154,112.230896 180.882577,113.512001 L139.170309,156.90217 C137.915733,158.190107 135.887875,158.190107 134.633298,156.90217 Z M181.886881,137.371982 L181.758535,137.371982 C178.248287,137.371982 175.405436,140.398806 175.405436,144.136216 L175.405436,174.951059 C175.405436,176.836845 173.967967,178.367339 172.1968,178.367339 L101.606807,178.367339 C99.8356402,178.367339 98.3981713,176.836845 98.3981713,174.951059 L98.3981713,99.7929049 C98.3981713,97.9071185 99.8356402,96.3766252 101.606807,96.3766252 L156.217792,96.3766252 C159.72804,96.3766252 162.570892,93.3498014 162.570892,89.6123914 L162.570892,89.4757402 C162.570892,85.7383301 159.72804,82.7115063 156.217792,82.7115063 L143.383248,82.7115063 L136.901804,82.7115063 L98.3981713,82.7115063 L91.9808992,82.7115063 C88.4353564,82.7115063 85.5636272,85.7690767 85.5636272,89.5440658 L85.5636272,185.199898 C85.5636272,188.974887 88.4353564,192.032458 91.9808992,192.032458 L181.822708,192.032458 C185.368251,192.032458 188.23998,188.974887 188.23998,185.199898 L188.23998,144.136216 C188.23998,140.398806 185.397128,137.371982 181.886881,137.371982 Z" id="Register-Icon"></path>
                </g>
            </g>
        </g>
    </g>
</svg>
