<?xml version="1.0" encoding="UTF-8" standalone="no"?>
<svg width="77px" height="101px" viewBox="0 0 77 101" version="1.1" xmlns="http://www.w3.org/2000/svg" xmlns:xlink="http://www.w3.org/1999/xlink">
    <!-- Generator: Sketch 39.1 (31720) - http://www.bohemiancoding.com/sketch -->
    <title>Combined Shape</title>
    <desc>Created with Sketch.</desc>
    <defs></defs>
    <g id="Page-1" stroke="none" stroke-width="1" fill="none" fill-rule="evenodd">
        <path d="M32.7697743,72.6166968 C32.2175064,72.6166968 31.7698048,72.1767949 31.7698048,71.6260528 L31.7698048,28.1702703 L31.7698048,19.1557838 L13.1774264,37.7481622 C10.9238048,40.0017838 7.54337238,40.0017838 5.28975075,37.7481622 C3.03612913,35.4945406 3.03612913,32.1141081 5.28975075,29.8604865 L32.8966156,2.25362162 C33.1783183,1.97191892 33.1783183,1.97191892 33.460021,1.69021622 L34.0234265,1.12681081 C34.0234265,1.12681081 34.0234265,1.12681081 34.3051292,0.845108109 C35.1502373,0.281702703 36.2770481,2.15232739e-14 37.4038589,2.13162821e-14 C38.5306697,2.11092903e-14 39.6574805,0.281702703 40.5025886,0.845108109 C40.5025886,0.845108109 40.5025886,0.845108109 40.7842913,1.12681081 C41.065994,1.40851351 41.3476967,1.40851351 41.3476967,1.69021622 L41.9111021,2.25362162 L69.517967,29.8604865 C71.7715886,32.1141081 71.7715886,35.4945406 69.517967,37.7481622 C67.2643454,40.0017838 63.883913,40.0017838 61.6302913,37.7481622 L43.0379129,19.1557838 L43.0379129,28.1702703 L43.0379129,71.6260528 C43.0379129,72.1731703 42.5822338,72.6166968 42.0379435,72.6166968 L32.7697743,72.6166968 Z M65.7548933,82.1785291 C65.7548933,85.9895489 62.6977947,89.0493544 58.8644534,89.0493544 L17.845545,89.0493544 C14.0275334,89.0493544 10.9551051,85.9897755 10.9551051,82.1959016 L10.9551051,55.6545013 C10.9551051,55.1042314 10.5120837,54.6581494 9.96359092,54.6581494 L0.991514196,54.6581494 C0.443916026,54.6581494 -1.48029737e-14,55.1131431 -1.48029737e-14,55.6545013 L-1.48029737e-14,82.1959016 C-1.48029737e-14,92.0504144 7.98744981,100.00446 17.845545,100.00446 L58.8644534,100.00446 C68.7503038,100.00446 76.7099984,92.0377169 76.7099984,82.1785291 L76.7099992,55.6538727 C76.7099992,55.1039499 76.2669778,54.6581494 75.718485,54.6581494 L66.7464083,54.6581494 C66.1988101,54.6581494 65.7548941,55.1128561 65.7548941,55.6538727 L65.7548933,82.1785291 Z" id="Combined-Shape" fill="#1A88CC"></path>
    </g>
</svg>