<?xml version="1.0" encoding="UTF-8" standalone="no"?>
<svg width="100px" height="100px" viewBox="0 0 100 100" version="1.1" xmlns="http://www.w3.org/2000/svg" xmlns:xlink="http://www.w3.org/1999/xlink">
    <!-- Generator: Sketch 39.1 (31720) - http://www.bohemiancoding.com/sketch -->
    <title>Combined Shape</title>
    <desc>Created with Sketch.</desc>
    <defs></defs>
    <g id="Page-1" stroke="none" stroke-width="1" fill="none" fill-rule="evenodd">
        <path d="M61.1237691,50 L97.696192,86.5724229 C100.767936,89.6441669 100.767936,94.624448 97.696192,97.696192 C94.624448,100.767936 89.6441669,100.767936 86.5724229,97.696192 L50,61.1237691 L13.4275771,97.696192 C10.3558331,100.767936 5.37555203,100.767936 2.30380801,97.696192 C-0.767936004,94.624448 -0.767936004,89.6441669 2.30380801,86.5724229 L38.8762309,50 L2.30380801,13.4275771 C-0.767936004,10.3558331 -0.767936004,5.37555203 2.30380801,2.30380801 C5.37555203,-0.767936004 10.3558331,-0.767936004 13.4275771,2.30380801 L50,38.8762309 L86.5724229,2.30380801 C89.6441669,-0.767936004 94.624448,-0.767936004 97.696192,2.30380801 C100.767936,5.37555203 100.767936,10.3558331 97.696192,13.4275771 L61.1237691,50 Z" id="Combined-Shape" fill="#53686D"></path>
    </g>
</svg>