<?xml version="1.0" encoding="UTF-8" standalone="no"?>
<svg width="100px" height="100px" viewBox="0 0 100 100" version="1.1" xmlns="http://www.w3.org/2000/svg" xmlns:xlink="http://www.w3.org/1999/xlink">
    <!-- Generator: Sketch 3.8.3 (29802) - http://www.bohemiancoding.com/sketch -->
    <title>Twitter</title>
    <desc>Created with Sketch.</desc>
    <defs></defs>
    <g id="Icons" stroke="none" stroke-width="1" fill="none" fill-rule="evenodd">
        <g id="Twitter" fill="#333333">
            <path d="M93.0908923,14.1479692 C90.4356615,15.8487385 84.3392923,18.3201846 81.3327385,18.3201846 L81.3327385,18.3252615 C77.8997231,14.7389231 73.0664923,12.5 67.7062769,12.5 C57.2955385,12.5 48.8536308,20.9419077 48.8536308,31.3485846 C48.8536308,32.7944923 49.0211692,34.2048615 49.3308615,35.5573538 L49.3278154,35.5573538 C35.2058462,35.1867385 19.7608308,28.1084923 10.4629538,15.9939385 C4.74633846,25.8888615 9.69329231,36.8936 16.1805846,40.9033538 C13.9599385,41.0708923 9.872,40.6474769 7.94784615,38.7700308 C7.81889231,45.3375385 10.9767385,54.0393846 22.4912,57.1962154 C20.2736,58.3892923 16.3481231,58.0471077 14.6412615,57.7932615 C15.2403385,63.3372615 23.0039692,70.5850769 31.4936,70.5850769 C28.4677538,74.0851077 17.0832615,80.4332923 4.30769231,78.4136923 C12.9841538,83.6926769 23.0963692,86.75 33.7995385,86.75 C64.2153846,86.75 87.8362769,62.0995077 86.5650154,31.6897538 C86.5599385,31.6562462 86.5599385,31.6227385 86.5568923,31.5861846 C86.5599385,31.508 86.5650154,31.4298154 86.5650154,31.3485846 C86.5650154,31.2541538 86.5568923,31.1648 86.5538462,31.0734154 C89.3228,29.1797231 93.0380923,25.8299692 95.6923077,21.4211692 C94.1529846,22.2690154 89.5350154,23.9667385 85.2379077,24.3881231 C87.9956923,22.8995692 92.0816,18.0247077 93.0908923,14.1479692" id="Fill-1"></path>
        </g>
    </g>
</svg>