<?xml version="1.0" standalone="no"?>
<!DOCTYPE svg PUBLIC "-//W3C//DTD SVG 20010904//EN"
 "http://www.w3.org/TR/2001/REC-SVG-20010904/DTD/svg10.dtd">
<svg version="1.0" xmlns="http://www.w3.org/2000/svg"
 width="700.000000pt" height="700.000000pt" viewBox="0 0 700.000000 700.000000"
 preserveAspectRatio="xMidYMid meet">
<metadata>
Created by potrace 1.11, written by Peter Selinger 2001-2013
</metadata>
<g transform="translate(0.000000,700.000000) scale(0.100000,-0.100000)"
fill="#000000" stroke="none">
<path d="M5831 6228 c-18 -68 -41 -154 -52 -193 -11 -38 -24 -87 -30 -108 -9
-35 -12 -37 -42 -32 -18 3 -39 8 -47 10 -8 2 -31 6 -50 9 -19 3 -99 17 -178
31 -78 14 -147 25 -152 25 -5 0 26 -48 70 -107 44 -60 108 -145 141 -191 l61
-83 -36 -32 c-19 -18 -48 -44 -63 -57 -96 -82 -253 -224 -251 -226 2 -1 107
-5 233 -9 127 -4 231 -8 233 -10 4 -3 9 -89 17 -295 7 -153 10 -180 18 -169
31 38 300 349 303 349 2 0 84 -58 182 -128 97 -70 183 -132 191 -136 13 -8 12
17 -6 99 -2 11 -8 45 -14 75 -6 30 -16 87 -24 125 -8 39 -17 91 -20 116 l-6
46 218 58 c120 32 221 61 225 64 4 3 -75 48 -175 100 -100 52 -194 102 -208
110 l-26 16 90 213 c49 117 87 215 85 217 -3 3 -18 -1 -34 -9 -16 -8 -99 -45
-184 -81 -85 -37 -167 -73 -182 -80 -33 -16 -18 -38 -213 330 -20 39 -38 71
-40 73 -1 1 -17 -53 -34 -120z"/>
<path d="M2181 5813 c-17 -66 -53 -207 -56 -223 -4 -21 -45 -172 -50 -187 -2
-8 -15 -9 -42 -3 -21 5 -54 11 -73 14 -19 3 -46 8 -60 11 -111 22 -286 53
-288 50 -3 -3 92 -136 237 -331 17 -23 31 -45 31 -50 0 -5 -79 -76 -175 -158
-96 -83 -173 -151 -171 -153 1 -2 92 -6 202 -9 256 -8 262 -8 267 -14 3 -3 8
-88 12 -190 11 -270 11 -269 16 -274 3 -4 116 126 291 335 17 20 20 18 200
-114 101 -73 188 -136 194 -140 10 -6 -1 59 -59 347 l-23 114 40 12 c21 6 46
13 55 15 9 2 57 15 106 29 50 14 128 36 175 49 46 13 80 26 75 29 -21 12 -186
100 -295 156 -71 37 -114 66 -112 74 4 14 119 291 132 318 19 37 43 101 39
104 -2 2 -96 -39 -209 -91 -112 -51 -209 -92 -215 -89 -6 2 -59 94 -119 205
-59 110 -109 201 -111 201 -3 0 -9 -17 -14 -37z"/>
<path d="M3800 5770 c-277 -32 -528 -85 -744 -158 l-109 -37 -54 -130 c-29
-71 -60 -144 -68 -162 -8 -17 -15 -35 -15 -40 0 -4 46 -32 103 -61 l102 -54
107 60 c86 48 230 117 383 183 207 89 606 196 835 223 57 7 116 15 160 22 78
12 587 12 678 0 50 -7 92 -9 92 -6 0 10 -222 76 -350 104 -137 30 -155 33
-380 62 -25 3 -166 7 -315 9 -212 2 -303 -1 -425 -15z"/>
<path d="M4398 5013 c-55 -83 -73 -123 -93 -199 -55 -212 38 -421 264 -593 91
-70 153 -102 246 -129 92 -27 137 -33 277 -32 104 0 148 2 293 15 159 15 263
20 415 20 154 0 313 -10 330 -20 3 -2 26 -6 50 -10 25 -3 53 -8 62 -11 9 -3
25 -7 35 -9 114 -26 283 -92 391 -152 34 -19 62 -32 62 -28 0 31 -130 168
-225 237 -133 96 -385 198 -550 224 -22 3 -42 7 -45 9 -3 2 -26 6 -50 9 -25 4
-56 9 -70 11 -60 12 -76 15 -115 20 -22 3 -51 8 -65 10 -14 3 -45 8 -70 11
-51 7 -73 10 -115 18 -16 3 -57 10 -90 15 -62 10 -146 25 -202 35 -17 3 -85
21 -150 40 -167 48 -291 108 -367 176 -104 93 -153 189 -163 319 -3 42 -7 77
-8 79 -2 2 -23 -28 -47 -65z"/>
<path d="M3667 4344 c-1 -1 -33 -5 -72 -8 -103 -9 -261 -39 -405 -78 -41 -11
-79 -21 -85 -23 -5 -1 -17 -5 -25 -8 -8 -3 -62 -20 -120 -38 -58 -18 -112 -36
-120 -40 -8 -4 -77 -30 -153 -59 -75 -28 -150 -58 -165 -66 -26 -14 -24 -14
33 -9 33 4 71 9 85 12 44 8 532 11 605 3 258 -30 392 -66 516 -140 303 -180
256 -532 -135 -1015 -44 -55 -85 -105 -91 -111 -5 -6 -61 -23 -123 -38 -111
-28 -113 -28 -135 -10 -48 42 -111 100 -126 117 -20 22 -40 22 -39 0 0 -10 -3
-56 -7 -103 -4 -47 -8 -91 -8 -98 0 -7 -47 -40 -104 -74 -57 -34 -100 -65 -96
-68 5 -4 52 -24 106 -46 54 -21 102 -45 107 -53 4 -9 17 -63 29 -120 12 -58
23 -106 25 -108 2 -2 13 7 23 21 11 14 47 55 79 92 l58 66 71 -7 c38 -3 91 -9
118 -11 26 -3 47 -3 47 0 0 3 -27 51 -61 106 l-61 101 28 66 c22 49 46 81 99
131 379 364 579 606 699 847 173 350 113 611 -165 721 -70 27 -79 29 -189 44
-64 9 -235 12 -243 4z"/>
<path d="M5389 3635 c-286 -46 -542 -173 -743 -369 -45 -45 -69 -69 -52 -55
141 119 357 230 517 265 115 25 183 32 299 32 101 0 147 -6 285 -32 17 -3 59
-15 95 -27 359 -117 657 -405 784 -756 54 -151 72 -263 70 -438 -4 -412 -207
-786 -549 -1014 -214 -143 -425 -206 -685 -206 -164 0 -279 20 -423 72 -68 24
-256 118 -267 132 -3 4 -25 21 -50 38 -25 17 -61 46 -80 63 -75 69 -83 73 -43
25 133 -161 330 -302 542 -388 488 -197 1044 -98 1436 256 238 213 386 481
446 802 14 76 18 307 7 395 -78 610 -540 1094 -1143 1199 -123 22 -330 24
-446 6z"/>
<path d="M1115 3443 c-69 -4 -204 -22 -240 -33 -16 -5 -41 -11 -55 -14 -48 -8
-156 -49 -245 -92 -136 -66 -256 -150 -370 -258 l-30 -29 30 18 c17 10 46 31
65 46 49 38 232 133 305 157 148 51 250 67 430 66 470 -1 900 -276 1102 -704
90 -189 118 -325 117 -550 -2 -331 -132 -633 -376 -871 -158 -155 -393 -281
-603 -323 -16 -4 -41 -9 -55 -12 -56 -13 -327 -12 -405 2 -243 43 -469 154
-644 319 l-76 70 55 -64 c102 -121 181 -190 310 -274 450 -292 1039 -295 1485
-9 66 42 194 138 205 154 3 4 35 38 72 75 161 167 293 418 344 657 37 170 38
401 2 556 -5 25 -12 55 -14 68 -22 113 -112 311 -206 450 -44 66 -216 249
-278 297 -217 167 -469 268 -724 290 -103 9 -140 11 -201 8z"/>
<path d="M155 3000 c-3 -6 1 -7 9 -4 18 7 21 14 7 14 -6 0 -13 -4 -16 -10z"/>
<path d="M5256 2949 c-7 -18 -77 -287 -84 -317 -4 -21 -8 -23 -41 -17 -20 4
-49 9 -66 12 -16 2 -76 13 -133 24 -56 11 -108 19 -116 17 -8 -2 29 -58 95
-148 101 -134 107 -145 91 -160 -100 -89 -193 -172 -219 -195 -18 -16 -33 -31
-33 -34 0 -4 26 -7 58 -8 264 -5 302 -8 303 -17 1 -6 3 -38 5 -71 2 -33 5 -87
8 -120 2 -33 5 -86 5 -118 1 -70 -10 -78 140 102 l107 129 80 -59 c43 -32 84
-62 89 -66 46 -36 125 -93 128 -93 3 0 -1 28 -8 63 -8 34 -16 76 -18 92 -3 17
-10 50 -15 75 -6 25 -14 65 -17 90 l-6 45 176 49 c96 28 172 53 168 57 -5 4
-75 43 -158 85 -82 42 -152 78 -154 80 -4 4 27 84 79 199 23 51 58 145 54 145
-2 0 -43 -18 -90 -40 -47 -22 -88 -40 -90 -40 -2 0 -36 -16 -76 -35 -39 -19
-75 -32 -79 -28 -4 5 -42 73 -84 153 -85 159 -92 170 -99 149z"/>
<path d="M905 2643 c-9 -32 -18 -66 -21 -75 -3 -9 -7 -25 -9 -35 -2 -10 -14
-57 -26 -104 l-23 -86 -66 13 c-36 6 -81 15 -100 18 -63 10 -94 16 -144 26
-27 6 -50 9 -52 7 -2 -2 46 -69 106 -150 l109 -146 -132 -117 c-73 -65 -133
-121 -135 -126 -2 -4 25 -8 60 -9 136 -1 290 -8 295 -13 3 -3 7 -44 9 -93 5
-109 12 -243 13 -263 1 -17 2 -16 144 153 50 59 95 107 100 107 8 0 230 -153
294 -202 8 -6 10 -4 7 9 -10 45 -57 291 -61 320 -6 35 -25 27 224 94 68 18
119 37 115 40 -7 8 -29 20 -207 114 -49 26 -94 51 -98 55 -5 4 23 83 62 176
39 92 70 169 68 170 -1 1 -18 -5 -37 -15 -19 -9 -64 -29 -100 -45 -36 -16 -93
-42 -127 -58 -34 -15 -65 -28 -70 -28 -5 0 -23 28 -41 63 -47 92 -131 249
-136 254 -2 3 -12 -22 -21 -54z"/>
</g>
</svg>
