<?xml version="1.0" encoding="utf-8"?>
<!-- Generator: Adobe Illustrator 19.2.1, SVG Export Plug-In . SVG Version: 6.00 Build 0)  -->
<svg version="1.1" id="Layer_1" xmlns="http://www.w3.org/2000/svg" xmlns:xlink="http://www.w3.org/1999/xlink" x="0px" y="0px"
	 viewBox="0 0 671 641" style="enable-background:new 0 0 671 641;" xml:space="preserve">
<style type="text/css">
	.st0{fill:#FFFFFF;}
	.st1{fill:#D3E9F4;}
	.st2{opacity:0.5;fill:none;stroke:#1A88CC;stroke-width:3;stroke-linecap:round;enable-background:new    ;}
	.st3{fill:#1A88CC;}
	.st4{fill:#D8D8D8;}
	.st5{fill:url(#path-2_4_);}
</style>
<g>
	<path id="path-2" class="st0" d="M47.1,406.1c-1.4,0-2.5-1.1-2.5-2.5v-35.4c0-1.4,1.1-2.5,2.5-2.5s2.5,1.1,2.5,2.5v35.4
		C49.6,405,48.5,406.1,47.1,406.1L47.1,406.1L47.1,406.1z M82.5,390.9H57.2c-1.4,0-2.5-1.1-2.5-2.5v-20.2c0-1.4,1.1-2.5,2.5-2.5
		h25.3c1.4,0,2.5,1.1,2.5,2.5v20.2C85,389.8,83.9,390.9,82.5,390.9L82.5,390.9L82.5,390.9z M80,372c0-0.8-0.5-1.3-1.3-1.3H61
		c-0.8,0-1.3,0.5-1.3,1.3v12.7c0,0.8,0.5,1.3,1.3,1.3h17.7c0.8,0,1.3-0.5,1.3-1.3V372L80,372z"/>
</g>
<g id="Map">
	<path id="Australia" class="st1" d="M519.6,631.4c-2.3-4.2-1.7-2.5-4.6-3.8c-0.9-0.4-0.2-2.2-0.4-2.8c-0.5-1.8-2.4-3.2-3.1-4.5
		c-0.5-0.9,0-5.2-0.3-6.8c-0.1-0.6-0.9-1.6-0.3-1.9c2.5-1.3,4.2,11,6.3,3.5c0.5-1.8-1.9,0.2-2.5-1c-0.5-1-0.1-2.4-1-3.2
		c-0.5-0.5-2,1.4-2,0.7c-0.2-7.3-2.8-4.9-5.2-9.8c-2-4-3-10.3-4.4-14.7c-0.9-3,0.7-0.8,1.6-2.8c0.7-1.5-2.2-6.5,1-3.2
		c2.6,2.7,9-0.4,9.2-0.3c0.8,0.1,0.1,1.8,0.7,2.4c0.5,0.6,1.5,0.6,2.3,0.7c0.4,0,0.8-0.5,1.2-0.3c3.7,2,7.4,5.1,12,6.3
		c1.8,0.5,3.7-0.9,5.5-0.4c0.7,0.2,0.3,1.8,1,2.1c0.1,0,0.6-3.6,4.9-1.4c0,0,1.3,3.1,1.8,3.5c0.5,0.5,1.6,2.1,1.6,1.4
		c0.1-1.8-5.7-6.5-5-7.4c1.7-2.2,9.9-0.7,11.2-1.1c1.5-0.4,2-3.5,3.9-3.5c0.2,0,3.1,1.7,4,1.1c0.5-0.4,0.8-1.1,1-1.8
		c0.1-0.3-0.5-0.8-0.2-1c1.3-1.5,6.4,3.3,6.9,4.2c0.2,0.4-2.2,15.2-2.1,18.2c0,0.5,1.5,9.4-0.4,9.1c-1.2-0.2-0.8-5.4-1-5.6
		c-0.5-0.6-1.6,1-1.5,1.7c0,0.3,1,0.1,0.8,0.4c-3.6,4-1.7,5.5-3.7,8.4c-0.4,0.6-1.8,0-2,0.7c-0.3,1,0.8,2.1,0.9,3.1
		c0.3,2-2.7,1.3-2.5,3.8c0,0.6,0.9-1,1.5-1c1.8,0,1.3,6.9,0.6,7.7c-0.5,0.6-0.8-2-1.6-1.7c-1.4,0.5-0.9,3.1-2.4,1.7
		c-0.3-0.3-0.8-0.6-0.8-1c0-0.5,1.2-0.7,0.9-1.1c-0.4-0.5-1.8,0.3-2-0.3c-1.3-4.9,9.7,0.7,3.1-3.8c-3.3-2.3-7.3,2.2-6.1,2.4
		c2.3,0.6-1.9-5.3-2.2-4.5c-0.4,0.9,1.1,1.8,1.2,2.8c0.3,2.5-10.3,14.9-12.3,14.3c-0.7-0.2-1.1-1.1-1.6-1.7c-0.3-0.4,0-1.2-0.5-1.4
		c-0.6-0.3-0.6,1.5-1.2,1.4c-3.5-0.4-4.4-1.1-6.5,0c-0.4,0.2-1.1,0.7-1.4,0.3c-1-1.1-1.6-2.7-2-4.2c-0.1-0.4,0.7-0.3,1.2-0.3
		c3.6,0,5.7-0.2,4.3-0.7c-0.6-0.2-4,0.9-4.5,0c-0.5-0.8,0.3-2.8-0.7-2.8C518.8,631.4,522,638.6,519.6,631.4z M665.2,341.3
		c-0.1-3.2-3.9-6.8-4.4-10.1c-0.1-0.4,0.6-0.6,0.6-1c0-0.9-0.1-1.9-0.7-2.6c-0.6-0.7-3.2-2.9-4.2-4.6c-0.5-1,2.2-0.3,1.7-1.3
		c-0.3-0.7-0.5-0.9-0.6-1c0.1,0,0.4,0,0.4-1.6c0.1-3.1-0.5-13.2-0.1-15.3c0.3-1.8,2.5-5.8,2.5-7.1c0-0.8-0.8-1.6-1.6-1.6
		c-0.7,0-0.6,2-1.2,1.6c-1.9-1.2-0.7-11.7-1.1-13c-0.7-2-5.2-0.7-6-2.6c-0.2-0.4,1.1-0.2,1.1-0.6c0-0.2-2.4-6.4-2.5-6.5
		c-1.1-1.2-3.6-1.7-4.6-2.9c-2.4-2.9-2.8-7-5.8-9.4c-2.2-1.8-6.1-1.1-7.6-3.6c-0.7-1.1-3.7-6.9-5.3-7.5c-0.6-0.2-0.5,1.9-1.2,1.6
		c-0.9-0.4-0.7-1.9-1.3-2.6c-1.2-1.3-2.1,0.8-3.3-0.6c-0.3-0.4,3.6,0,3.6-0.3c-0.4-3.5-1.7-7.2-1.6-10.7c0-1.2,2.3-8.4,1.1-8.1
		c-0.8,0.2-1.2,2.6-1.7,2c-1.5-1.8,2.7-3.7-0.4-5.2c-0.4-0.2,0,1.6-0.3,1.3c-0.5-0.6-1.1-5-1.7-0.3c-0.3,2.4,1.3,2.1,1.2,4.9
		c0,0.1-1.6-2.3-1.6-2.3c-1.4-1.1-4.1-2-5.4-3.6c-0.8-1-0.7-4.9-2.7-4.2c-6.1,2,2,7.8-0.5,9.8c-0.4,0.3-0.5-0.9-0.8-1.3
		c-0.2-0.4-1.7-3.4-2.7-3.6c-1.3-0.2-1.6,2.4-2.9,2.9c-1,0.5,1.8-2.5,0.9-3.3c-0.5-0.4-1.4,0.7-2,0.3c-0.4-0.3,0.9-0.6,1.1-1
		c0.1-0.1-0.1-0.3-0.3-0.3c-1.1-0.6-3.3-9.2-2.7-11.4c0.1-0.4,1.3-4.1,1.2-4.2c-0.2-0.5-0.9,0.7-1.4,0.6c-0.8-0.1-1.5-0.8-2.2-1.3
		c0,0,0.5-3.5,0.1-4.2c-1-2-0.6,0.5-1.9-0.3c-1-0.6,0.8-2.1,0.9-3.2c0.3-2.3-2.3-1.2-3-3.9c-0.3-1.1-2.4,0-3.3-0.6
		c-1.2-0.9-2.1-2.4-2.4-3.9c-0.2-1-0.1-2-0.2-2.9c-0.1-0.8-1.1-1.8-0.5-2.3c0.8-0.6,3.7,3.3,4.4,2.3c0.2-0.3-1.5-5-1.8-5.2
		c-1-0.7-3.2-1.3-3.3-1.6c-0.3-0.9,0-3.1-0.8-2.6c-7.7,4.9-3.1,0-5-1.9c-1.4-1.5-5.2-0.4-5.5-1c-0.5-0.8,0.1-3.6-1.9-3.6
		c-1.4,0-0.4,2.4-0.9,2.3c-6.9-1.8-2.9-5.4-2.9-5.5c-0.6-1.4-0.6-5.3-1.6-4.2c-0.7,0.8-0.9,1.2-0.9,1.5c-0.3,0-0.8,0-1.3,0.1
		c-5.9,0.6-3.4-3.7-4.4-3.9c-1.1-0.2-1.7,1.8-2.8,1.6c-1-0.1-1.1-1.7-1.9-2.3c-1.8-1.2-3.8-0.6-5.8-2.6c-3.8-3.9,0.5-6.3-1.2-9.7
		c-0.2-0.5-1-0.9-1.8-1.4c3-1.5,0.4-5.1,0.2-5.1c-4.1,0.8-1.4,2.4-0.5,4.9c-1-0.7-2.1-1.6-2.3-3.1c-0.7-4.3,1.8-8.1,1.3-12.3
		c-0.5-4.1-3.1-7.7-4-11.7c-0.1-0.4,1.6-3.3,0.9-3.6c-0.8-0.3-1.8,0.8-2.5,0.3c-0.8-0.5-0.8-1.8-1.4-2.6c-0.7-0.9-4.8-4.8-4.9-6.2
		c-0.4-3.2,1.6-3.7,1.2-7.2c-0.3-3-3.8-9.8-3.7-12c0-1.5,1.3-2.7,2-3.6c0.2-0.3-2.7-0.7-1.3-3.6c0.4-0.9,1.6-1.6,1.7-2.6
		c0.1-0.5-1,0.3-1.4,0c-2.9-2.7-6.1-7.1-9.7-7.8c-1.4-0.3-1.1-7.8-3-7.8c-0.9,0-1,1.5-1.7,2c-0.6,0.4-1.3,0.6-2,0.6
		c-0.6,0-1.2-1-1.7-0.6c-2.6,1.6-3.1,7.8-7,2.3c-4.2-5.9-2-14.3-4-20.5c-0.2-0.8,0-1.6-0.1-2.4c0-0.8,0-1.6-0.1-2.4
		c0-0.8-0.2-1.6-0.1-2.4c0.1-0.6,1.1-1.5,0.6-1.6c-1-0.3-2.2,1.6-3.1,1c-0.8-0.5-0.2-2,0-2.9c0.1-0.5,0.7-0.8,0.9-1.3
		c0.1-0.4,0.3-1,0-1.3c-6-7.8-7.1-4-2.7-12.3c0.1-0.2-0.4-0.4-0.6-0.3c-0.4,0.1-6,0-6.2-2.6c-0.3-6,1.2-12.9-3.8-17.6
		c-0.3-0.3-0.5,0.7-0.9,1c-2.5,2.3,0.6-3.2,0.6-3.3c-0.4-5.3-4.4,2.1-4.8,2.3c-0.3,0.1-2.8,0.2-3.1,1.3c-0.8,2.8,0.4,6.8-0.4,9.1
		c-0.6,1.7-3.6,6.9-2.9,9.1c0.3,0.8,1.8,1.1,1.7,1.9c-0.2,1.1-1.2,2.2-2.3,2.3c-1.4,0.1-2.6,0.9-3.7,2c-0.6,0.6-1.7,6.5-1.5,6.5
		c1.4,0,0.7-4.1,1.1-1.3c0.1,0.6,1.7,1.3,2,1.3c1.3,0.1,3.1-1.7,3.9-0.6c0.9,1-3.8,1.5-3.4,1.9c1.9,2.2,4.6,0,1.4,4.2
		c-0.2,0.3-1-4.3-1.9-3.6c-0.6,0.5-0.2,1.6-0.6,2.3l-3.1,3.3c-0.9,4.4,0.9,2,1.6,4.9c0.1,0.4-0.2,0.9-0.3,1.3c0,0.2-0.2,0.7,0,0.7
		c0.4,0,0.7-0.7,1.1-0.7c0.3,0-0.6,0.4-0.6,0.7c0,0.4,0.6,0.6,0.5,1c-0.1,1-0.7,1.9-0.9,2.9c-0.1,0.5,0.6,1.2,0.3,1.6
		c-0.3,0.4-0.5-0.8-0.5-1.3c-0.1-1.1,0.3-2.2,0-3.2c-0.4-1.4-2.2,2.2-2.6,3.6c-1.8,6.8,0.8,5.9,1,11.4c0.1,3.8-1.6,7.1-1,11.1
		c0.4,2.4,2,4.7,2.2,7.2c0.1,0.8-0.3,1.6,0,2.3c0.1,0.3,1.1,0.3,0.8,0.3c-3.7,0-3.6,3.3-4.8,5.9c-1.6,3.4,0.2,7.7-0.7,11
		c-2,7.4-5,11-7.7,16.9c-3,6.6-0.9,9.5-8.5,12.7c-1.8,0.7-3.8,2-5.9,2c-3.5,0-6.9-5.1-10.3-6.1c-1-0.3-2.1,0.1-3-0.4
		c-3-1.7-2.5-7.2-4.4-9.4c-1.6-1.8-12.8-2.6-15.3-4.2c-2.7-1.7-6.3-7.2-6.9-8.1c-0.8-1.2-3.2-1.4-4.2-1.6c-3-0.6-5.1-5-8.1-6.2
		c-0.4-0.2-3.8,1.8-4.5,1.3c-1.2-0.8-0.8-3.1-1.9-3.9c-6.2-4.6-12.2-10.1-19-14.6c-1.3-0.9-1.9-3.1-1.4-4.6c0.4-0.9,1.9-0.8,2.5-1.6
		c2.6-3.5,6.3-10.2,7.6-14.3c2.8-8.5-1,0.2-2.2-6.5c-1.3-7,2.4,0.1,2-2.6c-0.3-2.4-2.6-5,0.6-4.2c0.5,0.1,0,1.4,0.6,1.6
		c1.1,0.4,0.6-3.7,1.7-3.2c0.8,0.3,0.1,2.1,0.8,2.6c0.5,0.3,2.5-4.2,2.5-4.2c1.2,0.4-1,3.9,0.3,3.9c1.1,0,4.4-2,3.7-3.6
		c-0.3-0.6-1.4-0.6-1.7-1.3c-0.4-1.1,3.6,1.1,3.4,0c-0.1-0.4-4.1-3.6-3.1-3.9c3.3-0.9,3.8-1.2,4.5-5.9c0.2-1.4,4-1.7,4.2-2.6
		c0.1-0.5-1,0.3-1.4,0c-0.4-0.3-0.4-3.6-2.5-3.6c-2.5,0,1,3.8-1.7,2c-0.8-0.5-3.4-5.2-3.4-5.2c0.3-0.7,2.3-1.1,1.7-1.6
		c-0.7-0.6-6.5,4-6.2,4.9c0.1,0.3,5.8,5.5,0.5,5.5c-6.2,0-2-0.5-2.8-3.9c-0.2-0.8-1.7-0.1-2.2-0.6c-0.3-0.2,0.7-0.3,0.8-0.6
		c0.4-0.7,1.5-1.8,0.9-2.3c-1.6-1.3-3.3,4.7-5.1,3.6c-3.6-2.4,3.7-5.7,2.6-5.5c-4.4,0.6-10,7.6-13.8,5.5c-2.4-1.3-3.3-3.8-5.1-5.2
		c-2.3-1.8-2,1.7-2.8,2.3c-1.2,0.9-2.9-0.4-4.2-1c-0.6-0.3-1-1.8-1.4-1.3c-0.7,0.8-0.7,2.1-1.4,2.9c-0.4,0.5,0.5-3.4-1.1-4.6
		c-1.2-0.8-2.4,0.8-3.4,0.3c-2.4-1.2-0.3-1.3,0-3.6c0-0.3-0.5,0.3-0.8,0.3c-0.5,0-0.9-0.4-1.4-0.3c-0.9,0.2-3.9,2.8-4.5,2.6
		c-0.5-0.2,0.7-1.3,0.3-1.6c-0.8-0.6-3.8-1-5.1-1c-1.9,0-3.7-6.3-5.3-7.5c-0.4-0.3,0,1.2-0.3,1.6c-0.2,0.3-0.8-0.5-1.1-0.3
		c-0.2,0.1-1.8,2.5-2.8,1.6c-0.5-0.5-3.6-5.2-3.7-5.2c-0.6,0.1-0.9,1.7-1.4,1.3c-0.7-0.5,0.6-2.4-0.3-2.6c-0.8-0.2-0.4,1.9-1.1,2.3
		c-1,0.6-0.8-2.9-2-2.9c-0.2,0,1.2,4,0.6,5.2c-0.5,0.8-2.2-4.4-3.4-4.9c-0.3-0.1-0.5,0.4-0.6,0.6c-0.3,1.6-1.3,0.4-2,1.6
		c-0.3,0.5-2,0.8-1.4,1c0.6,0.2,1.1-0.7,1.7-0.7c0.9,0,3,4.8,3.1,4.9c1.7,1,6.2-3.8,8.2-1.6c0.6,0.7-0.4,2,0.3,2.6
		c0.6,0.6,1.8-0.5,2.5,0c0.4,0.3-0.7,0.8-0.6,1.3c0.1,0.4,1.1,0.2,1.1,0.6c0,0.4-0.8-0.2-1.1,0c-0.6,0.5-1.6,1.2-1.4,2
		c0.2,0.8,1.9,0.5,2.2,1.3c0.5,1.1-1.9,2-1.7,3.2c0.2,0.9,1.7,1.4,1.4,2.3c-0.2,0.6-1.3-0.1-2-0.3c-0.3-0.1-0.5-0.7-0.8-0.6
		c-3.5,0.4-1,3.7-2.8,5.2c-0.1,0.1-0.3,0.1-0.3,0c0.6-2.1,0-3.2-2-3.6c-1-0.2-2.4,2-3.7,2c-7.1,0,3.6-0.3-2.2-1.3
		c-2-0.3-7.6,3.6-9-0.3c-2.5-6.8,0.1,1.3-1.4,1c-2-0.5-4.9-4.5-4.5-2c1.6,9.2-0.7-0.1-2.5,4.9c-0.4,1.1,2.9,4.7,0.6,4.2
		c-2.4-0.5,0-4-4.5-4.5c-0.3,0-0.2,0.6-0.3,1c-0.4,1.4-0.5,4,0.3,4.5c0.3,0.2,0.9,0.9,0.6,1c-5.1,0.7,0.1-0.6-3.4-2
		c-1.6-0.6,0,1.6-0.6,1.6c-0.4,0-1-1.1-1.1-0.6c-0.3,0.8,1,3-0.3,3.9c-2.1,1.4-4.5,1.2-3.4,4.9c0.1,0.4,3.9,4.4,3.4,4.6
		c-2.7,0.8-0.3-2.5-2.2-0.3c-1.3,1.5-1.8,2.6-3.9,3.3c-1.1,0.3-0.9-2.9-2.2-0.6c-0.7,1.3,0,4.7-0.3,5.5c-0.1,0.3-1.7,1.1-1.7,2
		c0,1,0.9,2.7,0,2.9c-1.6,0.5-6.3,3.6-5.9,7.2c0.4,3.1,5.7,2.2,6.7,2.6c0.8,0.3-4.1,4,0.3,5.5c1.3,0.5,3.6-3.3,3.6-1.9
		c0,1.6-0.8,0.8-2,1.6c-0.6,0.4,0.1,2.7-0.6,2.3c-1.6-0.9-3.7-3.7-3.6,1.3c0,1.4,1,2.5,2.1,3.8c-0.4,0.1-0.9,0.6-1.3,0.4
		c-0.4-0.2,0.1-1.2-0.3-1.3c-0.6-0.1-1,1.3-1.4,1c-0.6-0.5-0.2-4.5-2.8-5.5c-0.4-0.2,0.7,0.9,0.6,1.3c-0.5,1.2-1.9-3.4-2.8-2.3
		c-1.7,2,0.3,4.7-1.1,7.2c-0.7,1.2-0.5-4.8-1.1-5.2c-2.2-1.5-7.3-3.9-10.9-3.6c-3,0.3,0.1,3.3-0.8,5.2c-0.3,0.5-0.9-1.3-1.4-1
		c-0.5,0.3,0.3,1.1,0.3,1.6c0,0.1-0.2,0.4-0.3,0.3c-1.5-1.5-1.7-4.2-2.8-0.3c-0.5,1.8,3.5,6,2.6,8.1c-0.2,0.4-2.2-6.6-3.7-5.8
		c-0.9,0.4,0.2,2,0,2.9c-0.4,2.3-2.3,4.8-4.7,5.2c-1.4,0.2,2.7-2.5,3.1-2.9c2.7-3.1-0.4-8.6,1.1-11.7c0.5-1.1,3-2.5,1.9-2.9
		c-6-2.3-11.7-14.8-15-15.6c-0.5-0.1-2.6,1.3-3.4,1c-1.4-0.5-1-4.4-3.4-4.2c-7,0.6,0.4,4.6,0,4.9c-0.5,0.5-1.3,0.3-2,0.3
		c-0.6,0-1.2-0.6-1.7-0.3c-0.3,0.2,0.6,0.6,0.6,1c0,4.7-0.7,0.1-1.4,0.7c-0.3,0.3-0.5,2.7-1.1,3.2c-0.5,0.4-0.2-1.4-0.6-2
		c-0.2-0.3-0.5,0.4-0.8,0.3c-2-0.5,0.7-3.7,0.5-4.2c-0.3-0.8-1.6,0.5-2.2,1c-1.9,1.3-0.9,4.9-3.3,4.9c-0.5,0-0.2-1.1-0.3-1.6
		c-0.3-1.8,0.8-3.9-0.9-4.5c-0.6-0.3-1.7-0.9-2-0.3c-0.4,0.8,1.2,1.8,0.9,2.6c-0.2,0.6-2-0.3-2,0.3c0,1.2,2.8,0.5,3.1,1.6
		c0.5,1.6-2.2,3.2-2.5,4.9c-0.1,0.7,0.9,1.4,0.6,2c-0.3,0.6-1.5,0.1-2,0.7c-0.4,0.5,0.5,1.5,0,1.9c-0.9,0.7-0.9-2.1-1.1-3.2
		c-0.3-1.5-2.4,4-3.3,2.9c-1.7-1.9,3.6-7.2-0.6-7.2c-0.4,0-0.4,6.1-0.5,6.2c-1.3,1.5-0.4-2.5-1.7-1c-1,1.1-1.2,1.7-1.2,1.9
		c-0.1-0.1-0.2-0.4-0.8-0.6c-0.3-0.2-0.2-1.1-0.6-1c-0.7,0.2-1.2,0.9-1.4,1.6c-0.1,0.4,1,0.3,0.8,0.6c-0.1,0.2-2.7,1.6-2.8,1.9
		c-0.3,1,2.9,2.1,3.1,2.3c1,0.9-3.9,1.3-0.5,2.9c1.6,0.8,0.6-1.7,2,0.3c0.4,0.6,1.2,1.3,0.9,1.9c-0.5,0.7-1.7,0.7-2.5,0.6
		c-0.4,0-0.4-0.9-0.8-1c-0.6-0.1-1.1,0.7-1.7,0.7c-1.4-0.2-0.1-1.6-0.3-2c-1.5-2.6-1.1-0.3-2.2,1c-2.1,2.5-1.3-2.5-2.8,1
		c-0.9,2.1,2.7-0.5,3.4,0c0.2,0.1-3.8,3.3-2.2,3.6c1,0.2,2.2-1.3,3.1-0.6c0.7,0.5-0.7,1.8-0.3,2.6c0.7,1.4,4.2,1.9,3.4,3.3
		c-0.7,1.2-1.9-1.9-3.1-2.6c-2-1.1-3.8-2-5.6-2.9c-0.4-0.2-0.9-1.4-1.1-1c-0.2,0.4-0.4,0.9-0.3,1.3c0.1,0.3,0.8,0,0.8,0.3
		c0.1,0.8-0.1,1.6-0.5,2.3c-0.7,0.9-2.4-0.1-3.1,0c-1.7,0.4-2.2,5.1-1.9,6.5c0.1,0.4-0.1,1.3,0.3,1.3c0.5,0,0.5-1.7,0.8-1.3
		c0.8,0.9-0.5,3.9,0.6,3.6c0.9-0.3,0.6-1.8,1.1-2.6c0.3-0.5,0.8-1,1.4-1.3c0.2-0.1,0.7,0.2,0.8,0c0.5-0.7,1.3-2.7,1.4-2
		c0.4,2.4-2.9,3.8-3.3,5.9c-0.1,0.3,0.9,4.9-0.5,4.5c-1.1-0.3-1.1-3.9-1.7-2.9c-0.4,0.7-1.7,5.1-0.2,5.2c2.7,0.2,5.5-0.6,8.1,1
		c0.5,0.3-1.1,0.7-1.7,0.7c-1.1-0.2-7.6-0.8-7.6-0.7c0.2,0.6,0.8,0.8,1.1,1.3c3.3,4.7-7.1-4.9-7.3-4.5c-0.5,0.8,1.6,1.8,1.1,2.6
		c-0.3,0.7-1.3-1.3-2-1c-0.7,0.3-0.1,2.1-0.8,2.3c-0.6,0.2,0-1.4-0.3-2c-0.8-1.5-1-3.6-4-3.2c-0.4,0.1,0.7,0.6,0.6,1
		c-2.3,5.4,4-3.6,1.2,3.3c-0.1,0.3-0.9-0.3-1.1,0c-0.4,0.5,0.4,1.4,0,1.9c-0.2,0.3-0.4,0.5-0.5,0.6c0.1,0.1,0.2,0.2,0.3,0.3
		c0.5,0.7-1.4,1.5-1.1,2.3c0.5,1.6,1.9,2.9,3.4,3.6c0.9,0.4,2.5-0.9,3.1,0c0.5,0.8-1.4,1.4-1.7,2.3c-0.1,0.4,0.6,0.8,0.6,1.3
		c-0.1,1-0.2,2.3-1.1,2.9c-1,0.7-3.3-4.5-3.7-2.9c-0.7,2.8,0.5,1.5,1.7,3.9c0.3,0.6-1.9,1.8-1.9,4.2c0.1,3.8,2,6,3.2,9.4
		c0.1,0.3-0.5-0.5-0.7-0.7c-1-1-2.3-1.7-2.4-3.2c-0.3-4.2-1.5-6.6-3.2-10.1c-0.8-1.7-3.4-4.1-4-5.5c-0.3-0.7,1.2-1.9,0.5-2.3
		c-0.5-0.3-1.6,0.5-1.1-0.6c0.2-0.5,1.3-1,0.8-1.3c-0.3-0.1-0.6,0.5-0.8,0.3c-0.3-0.2-0.9,0.3-1.1,0c-0.4-0.5,0.1-1.4-0.3-1.9
		c-0.7-0.8-1.7,1.9-1.7-0.7c0-1.2,2.6-1.9,1.9-2.9c-1.5-2.3-5.8,3.6-5.5,4.9c0.2,0.9,1.7,1.1,1.7,1.9c0,1.4-3.7-1.6-4.2-0.3
		c-0.4,1,0.1,2.2-0.2,3.2c-0.2,0.5-1-0.9-1.4-0.6c-2.1,1.2-3,4.2-5.2,6.8c-2.3,2.7,0.3,7.4,0.7,10.1c0.7,4.5-1.3,4-0.5,4.2
		c1.3,0.4,5.6-3,3.4,2.6c-0.2,0.5-7.3,6.6-8,6.8c-0.5,0.2-1-0.9-1.4-0.6c-1.2,0.8-0.2,3-0.5,4.2c-0.7,2.5-2.2-0.6-3.1,1
		c-0.3,0.6,0.6,1.3,0.6,2c0.1,6.5-7.9,14.6-13.1,17.2c-6.1,3.1-12.1,3.2-17.4,5.5c-0.6,0.3-2.5,2.3-3.3,2.3c-1.3,0-4.2-3.5-6.2-2.6
		c-3.2,1.5-3.3,3.3-6,6.5c-1.8,2.1-9,0.6-11.1,1.3c-2.6,0.9-6,7.7-9,6.8c-1.1-0.3-2.7,1.2-5,1c-2.9-0.3-2.7-3.3-2.9-3.3
		c-1.4,1-3.6,2.6-5.5,2.6c-1.9,0,2-4.8-0.1-3.6c-1.1,0.6-2.1,3.5-3,3.9c-4,2-8.8,3.5-12.3,6.8c-1.7,1.6-4.2,6.4-6.4,8.1
		c-3.4,2.7-9.3,3.9-13.1,6.2c-1.3,0.8-3.6,7.2-3.9,8.1c-0.3,0.8,0.2,5.6-1.2,5.2c-2.9-0.8,1.3,0.9-3.3,0.3c-0.5-0.1-0.4-1.1-0.3-1.6
		c0.6-3.3-0.9-1.1-1-4.5c0,0,0.9-6.2,0.9-6.2c0.1-0.4,0.9-0.9,0.5-1c-2.5-0.8-3.8,1.8-4.6,3.6C9.5,219.9,6,230,6,230.2
		c-0.2,3.3,3.3,5.4,3,8.8c-0.2,2.6-0.1,6.4-0.5,9.1c-0.4,2.2-1.3,1.2-2.9,3.2c-2.6,3.2-4.7,12.6-3.1,16.6c0.9,2.1,3.7,3.9,4.6,5.9
		c0,0.1,0.2,4.1,0.7,4.9c2.1,3.4,3.3,7.2,5.4,10.7c0.9,1.6,3.8,3.9,4.6,5.5c0.5,1.1-0.9,5.3-0.9,5.5c0,0.1,1.1,3,0.4,3.9
		c-3.9,4.8-4.5-5.5-5.2-7.8c-0.7-2.2-0.5,6.9-2.6,4.2c-1.7-2.2,0.4-3.7,0.3-5.5c-0.1-2.5-2.9-3.6-4.1-5.5c-0.4-0.6,0-1.8-0.6-2
		c-1.2-0.2-1.8,4.9-0.6,4.9c0.6,0,0.3-2.2,0.5-1.6c0.7,2.4,0.6,5.2,1.7,7.5c1.1,2.4,8.3,6.2,4.8,9.7c-0.4,0.4-1.1,0.3-1.6,0.7
		c-2.5,1.7-1.7-2.3-1.7-2.3c-0.3,0.7-0.7,2.6-1,1.9c-0.8-1.6-1-4.3-1-5.5c0.3,7.6-1.1-6-2.7-5.5c-1,0.3,0.4,2.2,0.4,3.3
		c0,0.9,0.4,2.8-0.4,2.6c-2.5-0.7,1-5-1.1-5.8c-0.8-0.3-0.4,1.7-0.4,2.6c0,0.4,0.4,1.1,0.1,1.3c-0.6,0.4-1-1.3-1.7-1.3
		c-0.4,0,0.3,0.7,0.5,1.1c0.5,0.7,1.1,1.4,1.5,2.2c0.4,0.8,0.4,1.8,0.9,2.6c2.5,3.9,6.6,6.7,8.7,11c1.7,3.5,6.9,10.3,5.8,14.6
		c-0.5,2.2-0.7,4,0.3,6.5c1.2,2.9,4.6,5.7,6.4,8.4c1.6,2.4,0.8,4.6,1.9,7.1c2.1,4.4,5.8,7.1,6.5,12c0.2,1.4-0.6,2.8-0.6,4.2
		c0.1,5.4,1,10.6,2.6,15.6c2.2,6.8,12.1,21.4,12.7,27c0.3,2.9-0.1,4.6-0.5,7.2c-0.2,1.8,1.3,5,1.4,6.8c0.1,1,0.3,2.8-0.7,2.9
		c-2.2,0.4-0.6-4.7-1-4.2c-2.1,2.7,0,11.3,0.5,14.3c0.1,0.9,1.4-1.7,1.1,0.3c-0.3,1.7-0.9-0.3-1.6,0.7c-2,2.6-1.2,6.2-5.6,6.2
		c-1.5,0-2.4-2.5-3.9-2.3c-1.2,0.2-0.7,2.4-0.6,3.6c0.1,1.6,0.5,10.3,1.2,11.1c1.1,1.3,7.5,2.2,9.3,2.9c3.7,1.5,5.1,6.1,7.7,8.4
		c1.4,1.3,3.5,2,5.5,2c0.5,0,0.3-1.6,0.7-1.3c2.4,1.4,1.1,2.9,3.9,3.6c0.4,0.1,5.2-1.2,5.5-1.3c1-0.2,1.5,1.6,2.5,1.6
		c1.8,0,3.3-2.2,4.4-1.9c2.2,0.4-1.4,0.5-0.7,1.3c2.1,2.4,3.8,0.4,5.1,0c0.3-0.1,4.6,1.8,4.6,1.6c0.5-4.4-0.9-1.9,3.6-1.9
		c0.5,0-0.5-1.3-0.1-1.6c1-0.7,2.9,0.4,3.4-0.7c0.4-0.8,0-1.8,0.4-2.6c0.9-1.7,2-1.2,3.4-1.6c2.6-0.8,2-4.8,5.4-4.6
		c1.1,0.1,2.2,0.2,3.2,0.7c0.4,0.2,0.4,0.9,0.8,1c0.9,0.2,1.9-2.7,2-2.9c0.6-1.3,2.7,1.5,2.7-0.3c-0.1-2.3-2.1,1.4-0.9-1.9
		c0.7-1.8,7.4-8.2,8.8-7.8c0.6,0.2-0.1,1.6,0.9,1.6c5,0,10.8-2.9,16-2.9c2.4,0,7.4,1.2,10.8,1.6c0.9,0.1,2.4-1.6,3.2-1
		c1.1,0.9,1.3,2.7,2.5,3.2c0.5,0.2,8.3-2.7,9.6-2.6c7.6,0.7,2-1,7,2.6c1.3,0.9,2.5-2,3.2-2.3c2.5-1,0.4,1.3,2.2,1.3
		c5,0,7.6-15.8,10-18.2c2.6-2.5,5.2-1.4,8.3-2.3c7.1-2.1,12.5-9.1,19.5-11.3c8.3-2.6,17.2,0.6,26-2c5.8-1.7,13.4-4,18.5-7.2
		c2.1-1.3,4.6-3.8,7.5-4.2c5.3-0.8,13-2.5,18.4-1.9c2.8,0.3,6.7,1.8,9.5,1.3c1.6-0.3,4.6-3.4,5.9-2.9c6.4,2.4,10.5,6.1,15.4,10.1
		c2.7,2.1,5.1-2.1,7.3-2c4.8,0.3,5.6,3.5,8.1,5.5c0.8,0.6,2-0.7,3-0.7c0.9,0,1.8,1,2.7,0.7c0.6-0.2-0.9-2-0.3-2c0.6,0.1,1,1.1,1.6,1
		c0.5-0.1,0.3-1.5,0.8-1.3c0.2,0.1,5.3,5.6,5.1,6.2c0,0.2-2.9,0.7-1.4,2.6c1.2,1.4,6-4.4,7,2.6c0.6,4.1-3.9,0.2-4.1,1.3
		c-0.1,0.8,1.4,1.1,1.6,1.9c0.1,0.7-1,1.3-0.8,2c0.2,0.5,1.3-0.2,1.6,0.3c0.6,1.1,0.5,2.4,1.3,3.9c0.2,0.4,0.6,1.4,0.8,1
		c0.4-0.9-0.8-2.4,0-2.9c0.7-0.4,0.4,1.8,1.1,2.3c1.1,0.9,2.8,0.9,4,1.6c0.4,0.3-0.6-0.8-0.8-1.3c-0.4-1,3.1,0.5,2.1,1.3
		c-0.2,0.2-1-0.2-0.8,0c2.1,2.6,4.2,4.1,2.6,7.8c-0.1,0.3,4.5,3.4,5.1,3.9c2,1.9,1.1,4.6,1.6,6.5c0.7,2.4,1.8,6.5,3.4,8.4
		c0.2,0.3,1.4,0.1,1.1,0.3c-2.6,1.6-4.9-3.4-5.1-3.3c-0.7,0.8-1.4,1.9-1.4,2.9c0,0.5,0.9-0.7,1.3-0.6c1.6,0.3,2.2,2,3.2,2.6
		c0.7,0.4,3.3,5.2,3.4,5.2c1.1,0.1,1.7-1.5,2.7-2c0.1,0,3.2,3.3,3.2,2c0-0.6,0.4-4.7,0.1-4.6c-1,0.4-2.7,2.7-2.7,1.6
		c0-1,1.6-4.6,2.2-5.5c0.4-0.6,1.9,0.3,2.1-0.3c3.1-7.3,6.9-10.6,13.6-14.6c2.2-1.3-3.4-0.4,0.3-1.9c1.2-0.5,2.5,1,4.6-0.7
		c2.4-2,4.1-13.3,7.5-13.3c0.7,0,1.2,0.8,1.9,0.7c0.4-0.1-0.3-9.3,0.1-9.1c2.1,1,1.5,6.5,2.6,8.8c0.3,0.7,1.3,1.2,1.3,2
		c0,2.4-3.3,1.2-3.5,3.2c-0.4,2.6,3.8,5.8,1.5,7.8c-4,3.6-3.7,4.8-6.3,9.4c-0.2,0.4-1.3-0.1-1.3,0.3c-0.9,5.2,2.6,9.4-0.2,14.9
		c-0.2,0.5-0.9,0.6-1.3,0.7c-2.1,0.2-3.8-1.8-5.9-0.3c-2.6,1.8,0.5,2.5-0.9,3.9c-1.6,1.7-3.1,1.4-1.7,3.6c0.1,0.1,4.2-1,5.9-2.3
		c2.9-2.2,5.9,1,8.5-1c2.1-1.6,2.3-17.5,6-19.2c0.5-0.2,0.6,0.8,0.8,1.3c0.6,1.8,0.6,2.5,1.5,4.9c0.4,1.3,5.4,4.2,5,6.2
		c-0.1,0.3-0.3,0.7-0.6,0.7c-1.5,0-0.4,7.6-1.5,10.1c-1.3,2.8-5.7,2.8-5.4,6.2c0,0.3,0.4,0.7,0.8,0.7c5.4,0,11-5.2,14.2-2.3
		c2.6,2.5,6.5,5.7,8.2,9.1c3.1,6.1,4.4,9,2.9,6.8c-2.3-3.3-8.2-16.2-13.2-16.2c-0.8,0,4,3.9,4,3.9c3,2.4,5,5.1,6.9,8.4
		c1.2,2.2,4.2,11.4,2.8,13.3c-0.9,1.3-1.5,1.9-1.9,2.1c0.2,0.4,0.5,1.2,0.7,2.7c0.1,0.6-0.8,1-0.8,1.6c0,0.7,0.4,1.4,0.7,1.9
		c1.3,2.1,3.1,3,4.9,4.5c2.9,2.5,3.6,7.4,6.6,9.7c2.3,1.8,6.7-0.1,9.4,1.6c3.2,1.9,3.7,6.5,6.6,6.5c2.8,0,0.9-2,3.3-3.2
		c2.2-1.1,4.1,1.9,6,2.3c2.3,0.5,4-1.1,6.3,0c3.1,1.4,12.8,8.8,16.2,9.1c1.2,0.1,7.6-6.7,9.3-7.8c1.8-1.1,10.2-5.1,8.7-6.5
		c-1.3-1.2-5.8,1.7-5.3,0c0.1-0.3,0.3-0.6,0.5-0.6c1.2-0.4,7.9-5.1,8.6-4.5c2.5,2.1,3.9,6.9,0.4,8.7c-1.9,1-4.9-0.1-4.8,0.3
		c0.9,0.6,3.2,3.6,4,3.6c0.8,0,1.4-0.4,2-0.9c0.3,0.3,0.7,0.7,1.4,1.2c0.8,0.6,1.9-0.2,2.9,0c0.3,0.1,0.5,0.4,0.8,0.6
		c0.2,0,0.4,0,0.6,0c1,0.9,2.2,2.2,2.7,2.3c1.3,0.2,5.1-0.7,3.9,0c-0.4,0.2-1.3-0.4-1.3,0c0.1,1.7,0.8,4.1,2.4,4.5
		c0.9,0.2,3.5-2.8,3.8-2.3c0.5,0.8,1.6,7.6,3.3,6.8c0.7-0.3,2.6-6.4,1.7-6.5c-3.5-0.4-1.6,3.1-3.7-0.3c-0.3-0.5-1-1.5,0.1-1.9
		c1.9-0.8,9.5-0.2,10.3-1c5.3-5.2,10.8-10.8,17.4-14.2c0.5-0.2-1.1-0.2-1.6,0c-1.1,0.4-3.4,2.2-1.8-1.3c0.6-1.4,2.9,1.1,4.4,1
		c4.1-0.4,7.3-1.6,11.7-1.6c3.8,0,15.5,0.2,16.7-4.9c0.1-0.5-0.9-0.8-0.7-1.3c0.1-0.2,2.5,1.1,3.4,0.6c0.2-0.1,1.9-7.4,1.8-7.5
		c-0.4-0.5-1.5-0.4-1.8-1c-0.2-0.4,0.8-0.5,0.9-1c0.7-4.9,2.1-9.9,4.1-14.3c0.6-1.3-0.7-4-0.5-4.9c0.6-2.5,2.5-5.5,3.9-7.1
		c1.9-2.2,4.4-7.5,5.4-10c0.2-0.5-1-1.6-0.4-1.6c0.9,0,1.3,2,2,1.6c0.8-0.4-0.7-2-0.1-2.6c0.6-0.7,3.1,0.2,2.7-0.6
		c-0.8-1.7-1-1.5-1.8-1.9c-0.4-0.3-1.7-0.6-1.3-1c3.1-2.4,4.1-2.3,3.1-6.8c-0.3-1.4,1.5,0.9,1.9-0.7c0.2-0.6-0.3-1.3-0.1-1.9
		c0.5-2.6,2.6-3.4,4.1-5.2c0.5-0.6,2-1.4,1.5-2c-3.3-3.1,0.7,1.2,1-2.6c0.1-1.3-4.8-0.6-3.7-1.3c1.7-1,3.2,0.6,4-0.3l1.3-4.5
		c-0.9-0.5-2.1,1.5-3,1c-1.3-0.7,4.4-2.6,4.5-2.6c2.1-2.7,3.3-8.5,5.5-10.7c0.1-0.1,10.2-4.4,5.3-3.6c-0.2,0-0.3,0.3-0.6,0.3
		c-0.6,0.1-1.5,0.5-1.9,0c-2.8-3.6,3.9-0.8,4.4-1c1-0.4,4.8-4,5.9-4.9c1.3-1,0.1-6.7,0.8-8.1c1.8-3.9,4.7-5.5,5.5-10.4
		c0.1-0.3,0.5,0.5,0.8,0.6c0.2,0.1,1-2.2,3.3-9.4c1.1-3.5-1-2.8-0.4-7.1c0.5-4,2.7-7,3.9-10.7c1.7-5.4,1.5-11.9,3.1-17.2
		c1-3.4,4-5.9,4.8-9.4C665.6,349,665.2,344.2,665.2,341.3z"/>
	<path id="Route" class="st2" d="M654.3,312.8c0,0-2.6,11.9-2.6,21.6v24.8c0,10.6-0.5,14.7-0.5,23.7s-2.6,14.8-6.1,21.5
		c-3.5,6.8-3.6,10.9-8.2,16.3s-14.7,12.3-17.8,20.2c-3.2,7.9-3.6,17.3-12.8,22c-9.3,4.7-14.6,6.6-21.4,6.6s-11-0.1-15.1,5.8
		c-4,5.9-1.8,8.7-9.5,15.4c-7.7,6.7-14.1,8.6-20,14c-5.9,5.4-11.8,7.2-15.2,13.6c-3.3,6.4-6.9,6.7-15.7,6.7
		c-8.7,0-21.1,1.8-24.3-2.5s-8.9-11.8-13.6-11.8c-4.7,0-11.4-1.7-15.6-6.4c-4.2-4.7-9.1-4.9-12-9.3c-3-4.4-10-14-15.6-19.8
		c-5.5-5.8-9-9.6-11.6-16.6c-2.7-6.9-4.7-16.5-4.7-23.4s0-9.8-3.2-13.9c-3.2-4.1-6.4-6.7-12.5,0c-6.1,6.7-14.7,13.1-21.5,13.1
		c-6.8,0-22.1-16.4-30.9-21.5c-8.8-5-26.8-5.7-30.8-8.6s-4-10-10.4-10s-5.9,3.4-15.6,5.6S241,407,235.7,407
		c-5.2,0-11.7-2.3-22.6,1.8c-11,4.1-23.3,8.4-28.3,8.4s-14.5-7-20.9-7h-19.2c-2.6,0-2.7-13.9-4.9-17c-2.2-3.1-1.7-5.3-17.2-2.2
		s-18.9,0-28.7,3.1c-9.8,3.1-1.3,5.4-12.7,5.4s-17.9-2.5-23.6,4.9c-5.7,7.4-10,2.4-10,2.4"/>
	<path id="_x35__x2C_200km" class="st3" d="M260.9,273c1.4,0,2.7,0.2,3.8,0.7c1.2,0.5,2.2,1.1,3,1.9c0.8,0.8,1.5,1.8,2,3
		c0.5,1.1,0.7,2.4,0.7,3.8c0,1.5-0.3,2.8-0.8,4c-0.5,1.2-1.3,2.3-2.3,3.1c-1,0.9-2.2,1.5-3.5,2s-2.9,0.7-4.5,0.7
		c-2.1,0-4-0.4-5.7-1.2c-1.7-0.8-3-1.9-3.9-3.4l4.2-4.9c0.8,0.8,1.7,1.5,2.6,2c1,0.5,1.9,0.7,2.8,0.7c1,0,1.8-0.3,2.3-0.8
		c0.6-0.5,0.8-1.3,0.8-2.2c0-0.9-0.3-1.6-0.8-2.1s-1.2-0.8-2-0.8c-0.6,0-1.1,0.1-1.6,0.4c-0.5,0.3-0.8,0.6-1.1,1h-6.6l3.4-17.9h14.4
		v7h-8.9l-0.4,3.1c0.1,0,0.3-0.1,0.4-0.1c0.1,0,0.3-0.1,0.6-0.1C260.3,273,260.6,273,260.9,273L260.9,273z M272.1,287
		c0.1,0,0.2,0,0.4,0c0.2,0,0.4-0.1,0.6-0.2c0.2-0.1,0.4-0.3,0.5-0.5c0.1-0.2,0.2-0.5,0.3-0.9v-6.6h6.2v8.2c0,1.1-0.3,2-0.8,2.7
		s-1.2,1.3-2,1.7c-0.8,0.4-1.6,0.7-2.6,0.8s-1.8,0.2-2.6,0.2V287z M283.5,286.2c0-1.3,0.1-2.5,0.3-3.6c0.2-1,0.6-1.9,1.1-2.8
		s1.1-1.6,1.9-2.2c0.8-0.6,1.7-1.3,2.9-1.9c1.5-0.8,2.6-1.4,3.5-1.9c0.8-0.5,1.5-0.9,1.9-1.2s0.7-0.5,0.8-0.7s0.2-0.4,0.2-0.7
		c0-0.7-0.2-1.2-0.6-1.5c-0.4-0.3-1-0.5-1.8-0.5c-0.9,0-1.7,0.2-2.5,0.7c-0.8,0.5-1.6,1.2-2.5,2.2l-4.9-5.7c0.5-0.6,1.2-1.1,2-1.6
		c0.8-0.5,1.7-0.9,2.7-1.2c1-0.3,2-0.6,3.1-0.8s2.2-0.3,3.4-0.3c3.1,0,5.5,0.6,7.1,1.9s2.4,3.1,2.4,5.4c0,0.8-0.1,1.6-0.3,2.2
		c-0.2,0.6-0.5,1.2-0.9,1.8c-0.4,0.5-0.8,1-1.3,1.4s-1.1,0.8-1.6,1.2c-0.7,0.5-1.4,0.9-2.1,1.3c-0.7,0.4-1.5,0.9-2.2,1.4h8.9v6.9
		H283.5z M329.6,274.4c0,1.8-0.3,3.4-0.8,4.9c-0.5,1.5-1.3,2.8-2.2,3.9c-1,1.1-2.1,1.9-3.4,2.5s-2.7,0.9-4.3,0.9s-3-0.3-4.3-0.9
		c-1.3-0.6-2.4-1.5-3.4-2.5s-1.7-2.4-2.2-3.9c-0.5-1.5-0.8-3.1-0.8-4.9s0.3-3.4,0.8-4.9c0.5-1.5,1.3-2.8,2.2-3.9
		c1-1.1,2.1-1.9,3.4-2.6c1.3-0.6,2.7-0.9,4.3-0.9s3,0.3,4.3,0.9s2.4,1.5,3.4,2.6c1,1.1,1.7,2.4,2.2,3.9
		C329.3,270.9,329.6,272.6,329.6,274.4L329.6,274.4z M321.8,274.4c0-1.6-0.3-2.8-0.8-3.8c-0.6-1-1.3-1.5-2.1-1.5
		c-0.9,0-1.7,0.5-2.2,1.5c-0.6,1-0.8,2.2-0.8,3.8c0,1.6,0.3,2.8,0.8,3.8c0.6,1,1.3,1.4,2.2,1.4c0.9,0,1.6-0.5,2.1-1.4
		C321.5,277.2,321.8,275.9,321.8,274.4L321.8,274.4z M354.4,274.4c0,1.8-0.3,3.4-0.8,4.9c-0.5,1.5-1.3,2.8-2.2,3.9s-2.1,1.9-3.4,2.5
		c-1.3,0.6-2.7,0.9-4.3,0.9s-3-0.3-4.3-0.9s-2.4-1.5-3.4-2.5c-1-1.1-1.7-2.4-2.2-3.9c-0.5-1.5-0.8-3.1-0.8-4.9s0.3-3.4,0.8-4.9
		c0.5-1.5,1.3-2.8,2.2-3.9c1-1.1,2.1-1.9,3.4-2.6s2.7-0.9,4.3-0.9s3,0.3,4.3,0.9c1.3,0.6,2.4,1.5,3.4,2.6c1,1.1,1.7,2.4,2.2,3.9
		C354.2,270.9,354.4,272.6,354.4,274.4L354.4,274.4z M346.7,274.4c0-1.6-0.3-2.8-0.8-3.8c-0.6-1-1.3-1.5-2.1-1.5
		c-0.9,0-1.7,0.5-2.2,1.5c-0.6,1-0.8,2.2-0.8,3.8c0,1.6,0.3,2.8,0.8,3.8c0.6,1,1.3,1.4,2.2,1.4c0.9,0,1.6-0.5,2.1-1.4
		C346.4,277.2,346.7,275.9,346.7,274.4L346.7,274.4z M372.1,286.2l-4.8-7.8l-1.5,1.7v6.1h-7.7v-29.5h7.7v16.1l5.7-7.9h8.1l-7.3,9.3
		l8,12H372.1z M415.9,286.2h-7.7v-12c0-1.1-0.2-1.8-0.6-2.3c-0.4-0.5-0.9-0.7-1.5-0.7c-0.6,0-1.3,0.3-2,0.8
		c-0.7,0.6-1.2,1.3-1.5,2.2v11.9h-7.7v-12c0-1.1-0.2-1.8-0.6-2.3c-0.4-0.5-0.9-0.7-1.5-0.7c-0.6,0-1.3,0.3-2,0.8
		c-0.7,0.6-1.2,1.3-1.5,2.2v11.9h-7.7v-21.3h6.9v3.2c0.8-1.2,1.8-2,3.1-2.6c1.3-0.6,2.9-0.9,4.7-0.9c0.9,0,1.6,0.1,2.3,0.3
		c0.6,0.2,1.2,0.5,1.7,0.8c0.5,0.4,0.8,0.7,1.1,1.2c0.3,0.4,0.5,0.9,0.7,1.4c0.8-1.2,1.8-2.1,3.1-2.7c1.3-0.6,2.8-1,4.5-1
		c1.4,0,2.5,0.3,3.3,0.8c0.8,0.5,1.4,1.2,1.9,2c0.4,0.8,0.7,1.6,0.8,2.5c0.1,0.9,0.2,1.7,0.2,2.4V286.2z"/>
	<path id="Flag" class="st0" d="M82.5,390.9H57.2c-1.4,0-2.5-1.1-2.5-2.5v-20.2c0-1.4,1.1-2.5,2.5-2.5h25.3c1.4,0,2.5,1.1,2.5,2.5
		v20.2C85,389.8,83.9,390.9,82.5,390.9L82.5,390.9L82.5,390.9z"/>
	<g id="Flag_1_">
		<g>
			<path id="path-2_1_" class="st4" d="M47.1,406.1c-1.4,0-2.5-1.1-2.5-2.5v-35.4c0-1.4,1.1-2.5,2.5-2.5s2.5,1.1,2.5,2.5v35.4
				C49.6,405,48.5,406.1,47.1,406.1L47.1,406.1L47.1,406.1z M82.5,390.9H57.2c-1.4,0-2.5-1.1-2.5-2.5v-20.2c0-1.4,1.1-2.5,2.5-2.5
				h25.3c1.4,0,2.5,1.1,2.5,2.5v20.2C85,389.8,83.9,390.9,82.5,390.9L82.5,390.9L82.5,390.9z M80,372c0-0.8-0.5-1.3-1.3-1.3H61
				c-0.8,0-1.3,0.5-1.3,1.3v12.7c0,0.8,0.5,1.3,1.3,1.3h17.7c0.8,0,1.3-0.5,1.3-1.3V372L80,372z"/>
		</g>
		<g>
			
				<linearGradient id="path-2_4_" gradientUnits="userSpaceOnUse" x1="55.1167" y1="797.0732" x2="55.1167" y2="796.0732" gradientTransform="matrix(40.4819 0 0 -40.4907 -2166.4578 32639.707)">
				<stop  offset="0" style="stop-color:#FFFFFF;stop-opacity:0.5"/>
				<stop  offset="1" style="stop-color:#000000;stop-opacity:0.5"/>
			</linearGradient>
			<path id="path-2_2_" class="st5" d="M47.1,406.1c-1.4,0-2.5-1.1-2.5-2.5v-35.4c0-1.4,1.1-2.5,2.5-2.5s2.5,1.1,2.5,2.5v35.4
				C49.6,405,48.5,406.1,47.1,406.1L47.1,406.1L47.1,406.1z M82.5,390.9H57.2c-1.4,0-2.5-1.1-2.5-2.5v-20.2c0-1.4,1.1-2.5,2.5-2.5
				h25.3c1.4,0,2.5,1.1,2.5,2.5v20.2C85,389.8,83.9,390.9,82.5,390.9L82.5,390.9L82.5,390.9z M80,372c0-0.8-0.5-1.3-1.3-1.3H61
				c-0.8,0-1.3,0.5-1.3,1.3v12.7c0,0.8,0.5,1.3,1.3,1.3h17.7c0.8,0,1.3-0.5,1.3-1.3V372L80,372z"/>
		</g>
		<g>
			<path id="path-2_3_" class="st3" d="M47.1,406.1c-1.4,0-2.5-1.1-2.5-2.5v-35.4c0-1.4,1.1-2.5,2.5-2.5s2.5,1.1,2.5,2.5v35.4
				C49.6,405,48.5,406.1,47.1,406.1L47.1,406.1L47.1,406.1z M82.5,390.9H57.2c-1.4,0-2.5-1.1-2.5-2.5v-20.2c0-1.4,1.1-2.5,2.5-2.5
				h25.3c1.4,0,2.5,1.1,2.5,2.5v20.2C85,389.8,83.9,390.9,82.5,390.9L82.5,390.9L82.5,390.9z M80,372c0-0.8-0.5-1.3-1.3-1.3H61
				c-0.8,0-1.3,0.5-1.3,1.3v12.7c0,0.8,0.5,1.3,1.3,1.3h17.7c0.8,0,1.3-0.5,1.3-1.3V372L80,372z"/>
		</g>
	</g>
	<path id="Marker-bottom" class="st0" d="M654.5,312.7c-0.4,0.1-0.6,0.3-1,0.3h-0.3H653c-0.4,0-0.6-0.1-1-0.3
		c-3.8-1.6-16.4-8.7-16.4-22.6c0-9.7,8-17.6,17.7-17.6s17.7,7.8,17.7,17.6C671,304.1,658.3,311.1,654.5,312.7L654.5,312.7
		L654.5,312.7z"/>
	<path id="Marker" class="st3" d="M654.5,312.7c-0.4,0.1-0.6,0.3-1,0.3h-0.3H653c-0.4,0-0.6-0.1-1-0.3c-3.8-1.6-16.4-8.7-16.4-22.6
		c0-9.7,8-17.6,17.7-17.6s17.7,7.8,17.7,17.6C671,304.1,658.3,311.1,654.5,312.7L654.5,312.7L654.5,312.7z M653.3,277.6
		c-7,0-12.7,5.7-12.7,12.5c0,10.4,9.2,15.9,12.4,17.6c0.1,0,0.1-0.1,0.3-0.1s0.1,0.1,0.3,0.1c3.3-1.6,12.4-7.2,12.4-17.6
		C665.9,283.3,660.2,277.6,653.3,277.6L653.3,277.6L653.3,277.6z M653.3,295.3c-2.8,0-5.1-2.3-5.1-5.1c0-2.8,2.3-5.1,5.1-5.1
		s5.1,2.3,5.1,5.1C658.3,293,656.1,295.3,653.3,295.3L653.3,295.3L653.3,295.3z"/>
</g>
</svg>
